PathFileType	4	(X/Y/Z)	0_coords_data.trc
DataRate	CameraRate	NumFrames	NumMarkers	Units	OrigDataRate	OrigDataStartFrame	OrigNumFrames
30.0	30.0	6	21	m	30.0	20	78
Frame#	Time	THUMB_TIP	THUMB_IP	THUMB_MCP	THUMB_CMC	INDEX_TIP	INDEX_DIP	INDEX_PIP	INDEX_MCP	MIDDLE_TIP	MIDDLE_DIP	MIDDLE_PIP	MIDDLE_MCP	RING_TIP	RING_DIP	RING_PIP	RING_MCP	PINKY_TIP	PINKY_DIP	PINKY_PIP	PINKY_MCP	WRIST
X1	Y1	Z1	X2	Y2	Z2	X3	Y3	Z3	X4	Y4	Z4	X5	Y5	Z5	X6	Y6	Z6	X7	Y7	Z7	X8	Y8	Z8	X9	Y9	Z9	X10	Y10	Z10	X11	Y11	Z11	X12	Y12	Z12	X13	Y13	Z13	X14	Y14	Z14	X15	Y15	Z15	X16	Y16	Z16	X17	Y17	Z17	X18	Y18	Z18	X19	Y19	Z19	X20	Y20	Z20	X21	Y21	Z21
18	0.6333333333333304	0.5277527324979073	-0.015442287760076945	-0.14877082735096997	0.5105485436617804	-0.019371361602776416	-0.13405422906096065	0.4832496942766793	-0.026065473268979567	-0.12068330197081578	0.47593901095933044	-0.027804263284128328	-0.07671262402838852	0.5683700216303235	0.015444593668863638	-0.1537289948696844	0.5526469975459025	0.02150941525911132	-0.1470954096611276	0.5304172897295341	0.027017739815836328	-0.13672678950333106	0.4932026126302016	0.021972125699304512	-0.11664581142507285	0.5863637497740765	0.016168562938432163	-0.13991451633299123	0.5711203783210201	0.021589091991861542	-0.13177464584722332	0.5463333579990041	0.02929802859815811	-0.1185237790847784	0.5069592084005543	0.02782187052459817	-0.09746089177698564	0.5882946928986335	0.004952484590969086	-0.11442322218399331	0.5772962600385535	0.016200834917299844	-0.10561929751607096	0.5588856220382777	0.02871260204254711	-0.09445309534942592	0.5213609714692157	0.022863938981117826	-0.0805817373025845	0.5832434509451869	-0.005429514399228452	-0.09394629544719096	0.5761214223303881	0.0051745599947993215	-0.08255198482057063	0.5623689370975639	0.015510398627078592	-0.07051655343285423	0.5277787632072407	0.009591355081549957	-0.06218779333645674	0.4622830810018608	-0.023011742144276925	-0.051989820119430985
19	0.6666666666666637	0.5278951787970356	-0.015432349815996949	-0.1486879643998758	0.5106641048877879	-0.01935018193290239	-0.13399985072119713	0.48336542126477144	-0.026088114743268775	-0.12065061351851603	0.4759571675594848	-0.027835066265447406	-0.07669659279893609	0.5683934063442648	0.014812555701432029	-0.15351508847695172	0.5527090553730565	0.021049546690984022	-0.1469499473506541	0.5304976248081414	0.02676694360024412	-0.1366556014344757	0.4932088100289662	0.021954555366614836	-0.11665506879523851	0.5863296100032549	0.015652421909707837	-0.13981715297747838	0.5711127759696437	0.021169320589626284	-0.13169238892250157	0.5463678146522993	0.029065632098268623	-0.11847328517218564	0.5069599331589787	0.02782342671690652	-0.09745843987180525	0.5882282072218076	0.0046645959089950395	-0.11438410856180797	0.5772856027532857	0.015983360390443235	-0.10560088716763893	0.5589190847929918	0.02857610776975783	-0.09445307525430924	0.5213779576815352	0.022844817823540198	-0.08057730771684107	0.5831996762165503	-0.005519584464549143	-0.09389118249431033	0.5761161550961291	0.005124890918414504	-0.08251054664397106	0.5623665651068359	0.01548920100875939	-0.07049631048525068	0.52777506383658	0.009612786629356163	-0.06214291327744231	0.4622830810018609	-0.023011742144276925	-0.051989820119430985
20	0.6999999999999968	0.5280263201146893	-0.015361291232855567	-0.1486155958551707	0.5107770662831644	-0.019289419000401375	-0.13395159045086663	0.483484732610058	-0.02608102139972457	-0.12061657415821336	0.47599287169740634	-0.027834169368237238	-0.07667697365631998	0.5684088282656626	0.014192954386035073	-0.15328237266880362	0.552766745598959	0.020608811887857348	-0.14678914370592838	0.530576571902973	0.02654061027075494	-0.13657054339636415	0.49321582666402963	0.021955585515938014	-0.11665099628332731	0.5862600806701744	0.015085473943447836	-0.1397133419024329	0.5710808382817676	0.02072649946695615	-0.13160350641969243	0.5463972224154143	0.028862739320172914	-0.11841524425922378	0.506959158611719	0.02783572307177895	-0.09744544974327313	0.5881109757225882	0.004342192042220194	-0.11434853056587763	0.5772362176145807	0.015741353248702517	-0.1055850404003697	0.5589279989121833	0.028431403646817732	-0.09445167936973359	0.5213635281776212	0.022867315374919706	-0.0805710347833049	0.5831683384867531	-0.005601537964753822	-0.0938480181884166	0.5761163933090642	0.005074413071802009	-0.08247726013646905	0.5623668451853137	0.015457372262173474	-0.07047908928238666	0.5277676952454573	0.009634795356793013	-0.06211967108371558	0.4622830810018609	-0.023011742144276925	-0.051989820119430985
21	0.7333333333333302	0.5281904562102111	-0.015274744806422769	-0.14849388329291402	0.5109222822424229	-0.019216421082927093	-0.1338558043223167	0.48361546465134975	-0.026064543423427122	-0.12057947450352213	0.47603343495799244	-0.027827375495575568	-0.07665573093794653	0.5684202138094185	0.013612167785825746	-0.15303973902134854	0.5528227713838066	0.020205059482939824	-0.14661684490344107	0.530649576906371	0.026330651845505648	-0.13647601663975928	0.49321811240306246	0.021971789640160444	-0.11663863073807423	0.5861590517935755	0.014512209990670044	-0.1395976080190961	0.5710241786900875	0.02029146719953223	-0.1315021894224373	0.546410034641303	0.02868496262996001	-0.11834533960171373	0.5069413167189005	0.027870610753615077	-0.09742393769879787	0.5879867282661624	0.0040182887455259	-0.11430038601170034	0.5771921916463597	0.015509802690476193	-0.105558356132047	0.5589406418012448	0.02829147401081744	-0.09443676517076555	0.5213547539044799	0.022892360042299997	-0.08054894916655564	0.5831269236560355	-0.005655597883172381	-0.09379027000731671	0.5760927721813681	0.005042871020332962	-0.0824296592775996	0.5623556881815387	0.015452157667064426	-0.07044002651892833	0.5277488646976163	0.009687124122003565	-0.06207249357444766	0.462283081001861	-0.023011742144276925	-0.051989820119430985
22	0.7666666666666633	0.5283705715048084	-0.01514076717864521	-0.14835346115873888	0.5110866720935039	-0.01910365869256858	-0.13373968984573475	0.4837617400352161	-0.02602414246043816	-0.1205383644414958	0.47607014565986194	-0.027827015772522	-0.07663530049619016	0.5684136804637954	0.013096627334099109	-0.15280371262330228	0.5528578452584044	0.019851507240380983	-0.14644858960998197	0.5306990821617251	0.026146853829683958	-0.13638043871988342	0.49319856935685735	0.02200031006886982	-0.116628127254852	0.5860450655101157	0.013911332425191492	-0.139480984766166	0.570961750061587	0.019841522686094626	-0.13139850751289367	0.5464203142853323	0.028487118470699624	-0.11826910716218508	0.5069171532560581	0.027908763162014738	-0.09740493464487315	0.58783319303856	0.003693678327733041	-0.11425363307490582	0.5771268477767347	0.015280262959435187	-0.10552865584244264	0.5589386491127657	0.028159020172547233	-0.09441528457150472	0.5213293988663645	0.022942338940336038	-0.08052099197256057	0.5830746001089586	-0.005704577928842602	-0.09374722556952647	0.5760645452393359	0.005008628551580352	-0.08238560871131911	0.5623472742500798	0.015452072754783885	-0.0704029976109834	0.5277357028128488	0.009727301963603607	-0.062027463417040574	0.4622830810018608	-0.023011742144276925	-0.051989820119430985
23	0.7999999999999965	0.5285679254299485	-0.01495649814524358	-0.14820395857034446	0.5112728962903509	-0.018960506208615557	-0.13361458276159488	0.4839283476592866	-0.025959413852450486	-0.1204954763912498	0.4761012668557485	-0.027821942966622992	-0.07661885629131804	0.5683878014433504	0.012642696977900991	-0.152568636346273	0.552874731907268	0.019557792949678854	-0.14628165604808746	0.530731355230472	0.02601701625557873	-0.1362836994251544	0.4931714086827992	0.02204777494173016	-0.11660803850287793	0.5858997400089389	0.01337581470350635	-0.13938231959974834	0.5708717099792664	0.01945716446121648	-0.13130918523002172	0.546410831490553	0.02836940300967461	-0.11820777394666065	0.506885134189261	0.027956907308499312	-0.09738238028548002	0.5876693813960779	0.00338504679706797	-0.11421591354685323	0.5770503286410015	0.01506334084462968	-0.10550654119727565	0.5589344176566836	0.02804693235043565	-0.09439708127257007	0.5213077670018897	0.022988467483550323	-0.08049140158071055	0.5830214866083153	-0.005754624692938415	-0.09372663974185663	0.5760378389719585	0.004969460772003109	-0.08235902536451967	0.562345380137597	0.015451702142327939	-0.07038191361236645	0.5277337260998729	0.009740418744033419	-0.061997517526942825	0.4622830810018609	-0.023011742144276925	-0.051989820119430985
